<?xml version="1.0" encoding="UTF-8"?>
<!DOCTYPE svg PUBLIC "-//W3C//DTD SVG 1.1//EN" "http://www.w3.org/Graphics/SVG/1.1/DTD/svg11.dtd">
<!-- Creator: CorelDRAW 2020 (64-Bit) -->
<svg xmlns="http://www.w3.org/2000/svg" xml:space="preserve" width="470px" height="247px" version="1.1" style="shape-rendering:geometricPrecision; text-rendering:geometricPrecision; image-rendering:optimizeQuality; fill-rule:evenodd; clip-rule:evenodd"
viewBox="0 0 47.28 24.79"
 xmlns:xlink="http://www.w3.org/1999/xlink"
 xmlns:xodm="http://www.corel.com/coreldraw/odm/2003">
 <defs>
  <style type="text/css">
   <![CDATA[
    .fil0 {fill:#2D2D2D}
   ]]>
  </style>
 </defs>
 <g id="Layer_x0020_1">
  <metadata id="CorelCorpID_0Corel-Layer"/>
  <g id="_2470420284912">
   <polygon class="fil0" points="47.28,10.61 47.28,8.2 35.69,0.07 23.56,8.21 12.05,0 0,8.4 0.07,10.49 12.16,2.32 23.64,10.47 35.62,2.42 "/>
   <polygon class="fil0" points="47.28,17.69 47.28,15.27 35.69,7.15 23.56,15.29 12.05,7.08 0,15.48 0.07,17.57 12.16,9.4 23.64,17.54 35.62,9.5 "/>
   <polygon class="fil0" points="47.28,24.79 47.28,22.38 35.69,14.25 23.56,22.39 12.05,14.18 0,22.58 0.07,24.67 12.16,16.5 23.64,24.65 35.62,16.6 "/>
  </g>
 </g>
</svg>
